<mxfile host="app.diagrams.net" modified="2023-04-20T09:08:39.522Z" agent="Mozilla/5.0 (Windows NT 6.1; Win64; x64) AppleWebKit/537.36 (KHTML, like Gecko) Chrome/108.0.0.0 Safari/537.36" etag="_OUdOUvj9UdgMjYG32I5" version="21.2.1" type="device">
  <diagram id="R2lEEEUBdFMjLlhIrx00" name="Page-1">
    <mxGraphModel dx="1435" dy="1014" grid="1" gridSize="6" guides="1" tooltips="1" connect="1" arrows="1" fold="1" page="0" pageScale="1" pageWidth="850" pageHeight="1100" math="0" shadow="0" extFonts="Permanent Marker^https://fonts.googleapis.com/css?family=Permanent+Marker">
      <root>
        <mxCell id="0" />
        <mxCell id="1" parent="0" />
        <mxCell id="SGavbVAg5E-sy-fef5p--4" style="edgeStyle=orthogonalEdgeStyle;rounded=0;orthogonalLoop=1;jettySize=auto;html=1;entryX=0;entryY=0.5;entryDx=0;entryDy=0;entryPerimeter=0;endArrow=none;endFill=0;" parent="1" source="gL0lSikYTc0_ZpaFeunG-1" target="gL0lSikYTc0_ZpaFeunG-6" edge="1">
          <mxGeometry relative="1" as="geometry" />
        </mxCell>
        <mxCell id="SGavbVAg5E-sy-fef5p--6" style="edgeStyle=orthogonalEdgeStyle;rounded=0;orthogonalLoop=1;jettySize=auto;html=1;entryX=0.6;entryY=0.309;entryDx=0;entryDy=0;entryPerimeter=0;endArrow=none;endFill=0;" parent="1" source="gL0lSikYTc0_ZpaFeunG-1" edge="1">
          <mxGeometry relative="1" as="geometry">
            <mxPoint x="140" y="304" as="targetPoint" />
          </mxGeometry>
        </mxCell>
        <mxCell id="gL0lSikYTc0_ZpaFeunG-1" value="APPLICANT" style="rounded=0;whiteSpace=wrap;html=1;" parent="1" vertex="1">
          <mxGeometry x="80" y="120" width="120" height="60" as="geometry" />
        </mxCell>
        <mxCell id="gL0lSikYTc0_ZpaFeunG-3" value="POSITION" style="rounded=0;whiteSpace=wrap;html=1;" parent="1" vertex="1">
          <mxGeometry x="80" y="500" width="120" height="60" as="geometry" />
        </mxCell>
        <mxCell id="SGavbVAg5E-sy-fef5p--1" style="edgeStyle=orthogonalEdgeStyle;rounded=0;orthogonalLoop=1;jettySize=auto;html=1;entryX=1;entryY=0.5;entryDx=0;entryDy=0;endArrow=none;endFill=0;" parent="1" source="gL0lSikYTc0_ZpaFeunG-4" target="gL0lSikYTc0_ZpaFeunG-8" edge="1">
          <mxGeometry relative="1" as="geometry" />
        </mxCell>
        <mxCell id="gL0lSikYTc0_ZpaFeunG-4" value="COMPANY" style="rounded=0;whiteSpace=wrap;html=1;" parent="1" vertex="1">
          <mxGeometry x="600" y="500" width="120" height="60" as="geometry" />
        </mxCell>
        <mxCell id="SGavbVAg5E-sy-fef5p--5" style="edgeStyle=orthogonalEdgeStyle;rounded=0;orthogonalLoop=1;jettySize=auto;html=1;entryX=0;entryY=0.5;entryDx=0;entryDy=0;startArrow=none;startFill=0;endArrow=none;endFill=0;" parent="1" source="gL0lSikYTc0_ZpaFeunG-6" target="KMxwU-C4y8gagwHS2Y9p-1" edge="1">
          <mxGeometry relative="1" as="geometry" />
        </mxCell>
        <mxCell id="gL0lSikYTc0_ZpaFeunG-6" value="APPLICANT&lt;br&gt;SPECIFY" style="rhombus;whiteSpace=wrap;html=1;" parent="1" vertex="1">
          <mxGeometry x="354" y="106" width="102" height="88" as="geometry" />
        </mxCell>
        <mxCell id="SGavbVAg5E-sy-fef5p--2" style="edgeStyle=orthogonalEdgeStyle;rounded=0;orthogonalLoop=1;jettySize=auto;html=1;entryX=1;entryY=0.5;entryDx=0;entryDy=0;endArrow=none;endFill=0;" parent="1" source="gL0lSikYTc0_ZpaFeunG-8" target="gL0lSikYTc0_ZpaFeunG-3" edge="1">
          <mxGeometry relative="1" as="geometry" />
        </mxCell>
        <mxCell id="gL0lSikYTc0_ZpaFeunG-8" value="JOB POSTING" style="rhombus;whiteSpace=wrap;html=1;" parent="1" vertex="1">
          <mxGeometry x="360" y="490" width="102" height="80" as="geometry" />
        </mxCell>
        <mxCell id="gL0lSikYTc0_ZpaFeunG-10" value="&lt;u&gt;AP_ID&lt;/u&gt;" style="ellipse;whiteSpace=wrap;html=1;rounded=0;" parent="1" vertex="1">
          <mxGeometry x="-25" y="6" width="72" height="30" as="geometry" />
        </mxCell>
        <mxCell id="gL0lSikYTc0_ZpaFeunG-12" value="AP_NAME" style="ellipse;whiteSpace=wrap;html=1;rounded=0;" parent="1" vertex="1">
          <mxGeometry x="100" y="-24" width="86" height="30" as="geometry" />
        </mxCell>
        <mxCell id="gL0lSikYTc0_ZpaFeunG-14" value="AP_ADDRESS" style="ellipse;whiteSpace=wrap;html=1;rounded=0;" parent="1" vertex="1">
          <mxGeometry x="212" y="25" width="106" height="41" as="geometry" />
        </mxCell>
        <mxCell id="gL0lSikYTc0_ZpaFeunG-17" value="AP_SEX" style="ellipse;whiteSpace=wrap;html=1;rounded=0;" parent="1" vertex="1">
          <mxGeometry x="-149" y="140" width="82" height="34" as="geometry" />
        </mxCell>
        <mxCell id="gL0lSikYTc0_ZpaFeunG-19" value="AP_ED" style="ellipse;whiteSpace=wrap;html=1;rounded=0;" parent="1" vertex="1">
          <mxGeometry x="-87" y="222" width="75" height="36" as="geometry" />
        </mxCell>
        <mxCell id="gL0lSikYTc0_ZpaFeunG-22" value="AP_MAJ" style="ellipse;whiteSpace=wrap;html=1;rounded=0;" parent="1" vertex="1">
          <mxGeometry x="-144" y="48" width="72" height="36" as="geometry" />
        </mxCell>
        <mxCell id="gL0lSikYTc0_ZpaFeunG-30" value="QUAL_DESC" style="ellipse;whiteSpace=wrap;html=1;rounded=0;" parent="1" vertex="1">
          <mxGeometry x="690" y="23" width="102" height="37" as="geometry" />
        </mxCell>
        <mxCell id="gL0lSikYTc0_ZpaFeunG-41" value="" style="edgeStyle=orthogonalEdgeStyle;rounded=0;orthogonalLoop=1;jettySize=auto;html=1;endArrow=none;endFill=0;" parent="1" source="gL0lSikYTc0_ZpaFeunG-40" target="gL0lSikYTc0_ZpaFeunG-3" edge="1">
          <mxGeometry relative="1" as="geometry" />
        </mxCell>
        <mxCell id="gL0lSikYTc0_ZpaFeunG-40" value="APPLY" style="rhombus;whiteSpace=wrap;html=1;" parent="1" vertex="1">
          <mxGeometry x="100" y="300" width="80" height="80" as="geometry" />
        </mxCell>
        <mxCell id="gL0lSikYTc0_ZpaFeunG-44" value="APPLY_DATE" style="ellipse;whiteSpace=wrap;html=1;" parent="1" vertex="1">
          <mxGeometry x="216" y="252" width="90" height="36" as="geometry" />
        </mxCell>
        <mxCell id="gL0lSikYTc0_ZpaFeunG-46" value="POSITION SPECIFY" style="rhombus;whiteSpace=wrap;html=1;" parent="1" vertex="1">
          <mxGeometry x="356" y="295" width="96" height="90" as="geometry" />
        </mxCell>
        <mxCell id="gL0lSikYTc0_ZpaFeunG-48" value="" style="endArrow=none;html=1;rounded=0;exitX=1;exitY=0;exitDx=0;exitDy=0;entryX=0;entryY=1;entryDx=0;entryDy=0;endFill=0;" parent="1" source="gL0lSikYTc0_ZpaFeunG-3" target="gL0lSikYTc0_ZpaFeunG-46" edge="1">
          <mxGeometry width="50" height="50" relative="1" as="geometry">
            <mxPoint x="360" y="320" as="sourcePoint" />
            <mxPoint x="410" y="270" as="targetPoint" />
          </mxGeometry>
        </mxCell>
        <mxCell id="gL0lSikYTc0_ZpaFeunG-49" value="" style="endArrow=none;html=1;rounded=0;exitX=1;exitY=0;exitDx=0;exitDy=0;entryX=0;entryY=1;entryDx=0;entryDy=0;endFill=0;" parent="1" source="gL0lSikYTc0_ZpaFeunG-46" target="KMxwU-C4y8gagwHS2Y9p-1" edge="1">
          <mxGeometry width="50" height="50" relative="1" as="geometry">
            <mxPoint x="360" y="320" as="sourcePoint" />
            <mxPoint x="600" y="180" as="targetPoint" />
          </mxGeometry>
        </mxCell>
        <mxCell id="gL0lSikYTc0_ZpaFeunG-52" value="POS_NAME" style="ellipse;whiteSpace=wrap;html=1;" parent="1" vertex="1">
          <mxGeometry x="-108" y="588" width="96" height="36" as="geometry" />
        </mxCell>
        <mxCell id="gL0lSikYTc0_ZpaFeunG-53" value="POS_PERIOD" style="ellipse;whiteSpace=wrap;html=1;" parent="1" vertex="1">
          <mxGeometry x="-102" y="672" width="102" height="42" as="geometry" />
        </mxCell>
        <mxCell id="gL0lSikYTc0_ZpaFeunG-54" value="POS_SALARY" style="ellipse;whiteSpace=wrap;html=1;" parent="1" vertex="1">
          <mxGeometry x="80" y="666" width="102" height="36" as="geometry" />
        </mxCell>
        <mxCell id="gL0lSikYTc0_ZpaFeunG-56" value="POS_NUMBER" style="ellipse;whiteSpace=wrap;html=1;" parent="1" vertex="1">
          <mxGeometry x="228" y="612" width="102" height="36" as="geometry" />
        </mxCell>
        <mxCell id="gL0lSikYTc0_ZpaFeunG-67" value="" style="endArrow=none;html=1;rounded=0;exitX=1;exitY=1;exitDx=0;exitDy=0;entryX=0;entryY=0;entryDx=0;entryDy=0;" parent="1" source="gL0lSikYTc0_ZpaFeunG-3" target="gL0lSikYTc0_ZpaFeunG-56" edge="1">
          <mxGeometry width="50" height="50" relative="1" as="geometry">
            <mxPoint x="492" y="452" as="sourcePoint" />
            <mxPoint x="542" y="402" as="targetPoint" />
          </mxGeometry>
        </mxCell>
        <mxCell id="gL0lSikYTc0_ZpaFeunG-68" value="" style="endArrow=none;html=1;rounded=0;exitX=0.75;exitY=1;exitDx=0;exitDy=0;entryX=0.5;entryY=0;entryDx=0;entryDy=0;" parent="1" source="gL0lSikYTc0_ZpaFeunG-3" target="gL0lSikYTc0_ZpaFeunG-54" edge="1">
          <mxGeometry width="50" height="50" relative="1" as="geometry">
            <mxPoint x="492" y="452" as="sourcePoint" />
            <mxPoint x="542" y="402" as="targetPoint" />
          </mxGeometry>
        </mxCell>
        <mxCell id="gL0lSikYTc0_ZpaFeunG-69" value="" style="endArrow=none;html=1;rounded=0;exitX=0.381;exitY=1.048;exitDx=0;exitDy=0;exitPerimeter=0;entryX=1;entryY=0.5;entryDx=0;entryDy=0;" parent="1" source="gL0lSikYTc0_ZpaFeunG-3" target="gL0lSikYTc0_ZpaFeunG-53" edge="1">
          <mxGeometry width="50" height="50" relative="1" as="geometry">
            <mxPoint x="492" y="452" as="sourcePoint" />
            <mxPoint x="542" y="402" as="targetPoint" />
          </mxGeometry>
        </mxCell>
        <mxCell id="gL0lSikYTc0_ZpaFeunG-70" value="" style="endArrow=none;html=1;rounded=0;exitX=0;exitY=1;exitDx=0;exitDy=0;entryX=1;entryY=0.5;entryDx=0;entryDy=0;" parent="1" source="gL0lSikYTc0_ZpaFeunG-3" target="gL0lSikYTc0_ZpaFeunG-52" edge="1">
          <mxGeometry width="50" height="50" relative="1" as="geometry">
            <mxPoint x="492" y="452" as="sourcePoint" />
            <mxPoint x="542" y="402" as="targetPoint" />
          </mxGeometry>
        </mxCell>
        <mxCell id="gL0lSikYTc0_ZpaFeunG-71" value="" style="endArrow=none;html=1;rounded=0;exitX=0;exitY=0.5;exitDx=0;exitDy=0;entryX=1;entryY=0.5;entryDx=0;entryDy=0;" parent="1" source="gL0lSikYTc0_ZpaFeunG-3" target="SGavbVAg5E-sy-fef5p--8" edge="1">
          <mxGeometry width="50" height="50" relative="1" as="geometry">
            <mxPoint x="492" y="452" as="sourcePoint" />
            <mxPoint x="-31.185683292236945" y="517.0169064932552" as="targetPoint" />
          </mxGeometry>
        </mxCell>
        <mxCell id="gL0lSikYTc0_ZpaFeunG-77" value="&lt;u&gt;COMP_ID&lt;/u&gt;" style="ellipse;whiteSpace=wrap;html=1;" parent="1" vertex="1">
          <mxGeometry x="615" y="390" width="90" height="42" as="geometry" />
        </mxCell>
        <mxCell id="gL0lSikYTc0_ZpaFeunG-78" value="COMP_NAME" style="ellipse;whiteSpace=wrap;html=1;" parent="1" vertex="1">
          <mxGeometry x="780" y="338" width="102" height="42" as="geometry" />
        </mxCell>
        <mxCell id="gL0lSikYTc0_ZpaFeunG-79" value="COMP_ADDRESS" style="ellipse;whiteSpace=wrap;html=1;" parent="1" vertex="1">
          <mxGeometry x="816" y="448" width="120" height="50" as="geometry" />
        </mxCell>
        <mxCell id="gL0lSikYTc0_ZpaFeunG-81" value="COMP_PERSON" style="ellipse;whiteSpace=wrap;html=1;" parent="1" vertex="1">
          <mxGeometry x="816" y="576" width="114" height="48" as="geometry" />
        </mxCell>
        <mxCell id="gL0lSikYTc0_ZpaFeunG-82" value="" style="endArrow=none;html=1;rounded=0;exitX=1;exitY=0.5;exitDx=0;exitDy=0;entryX=0;entryY=1;entryDx=0;entryDy=0;" parent="1" source="gL0lSikYTc0_ZpaFeunG-40" target="gL0lSikYTc0_ZpaFeunG-44" edge="1">
          <mxGeometry width="50" height="50" relative="1" as="geometry">
            <mxPoint x="486" y="308" as="sourcePoint" />
            <mxPoint x="536" y="258" as="targetPoint" />
          </mxGeometry>
        </mxCell>
        <mxCell id="gL0lSikYTc0_ZpaFeunG-83" value="" style="endArrow=none;html=1;rounded=0;exitX=0;exitY=1;exitDx=0;exitDy=0;entryX=1;entryY=0.5;entryDx=0;entryDy=0;" parent="1" source="gL0lSikYTc0_ZpaFeunG-1" target="gL0lSikYTc0_ZpaFeunG-19" edge="1">
          <mxGeometry width="50" height="50" relative="1" as="geometry">
            <mxPoint x="486" y="308" as="sourcePoint" />
            <mxPoint x="536" y="258" as="targetPoint" />
          </mxGeometry>
        </mxCell>
        <mxCell id="gL0lSikYTc0_ZpaFeunG-84" value="" style="endArrow=none;html=1;rounded=0;exitX=0;exitY=0.5;exitDx=0;exitDy=0;entryX=1;entryY=0.5;entryDx=0;entryDy=0;" parent="1" source="gL0lSikYTc0_ZpaFeunG-1" target="gL0lSikYTc0_ZpaFeunG-17" edge="1">
          <mxGeometry width="50" height="50" relative="1" as="geometry">
            <mxPoint x="486" y="308" as="sourcePoint" />
            <mxPoint x="536" y="258" as="targetPoint" />
          </mxGeometry>
        </mxCell>
        <mxCell id="gL0lSikYTc0_ZpaFeunG-85" value="" style="endArrow=none;html=1;rounded=0;exitX=0;exitY=0;exitDx=0;exitDy=0;entryX=1;entryY=0.5;entryDx=0;entryDy=0;" parent="1" source="gL0lSikYTc0_ZpaFeunG-1" target="gL0lSikYTc0_ZpaFeunG-22" edge="1">
          <mxGeometry width="50" height="50" relative="1" as="geometry">
            <mxPoint x="486" y="308" as="sourcePoint" />
            <mxPoint x="536" y="258" as="targetPoint" />
          </mxGeometry>
        </mxCell>
        <mxCell id="gL0lSikYTc0_ZpaFeunG-86" value="" style="endArrow=none;html=1;rounded=0;exitX=0.25;exitY=0;exitDx=0;exitDy=0;entryX=1;entryY=1;entryDx=0;entryDy=0;" parent="1" source="gL0lSikYTc0_ZpaFeunG-1" target="gL0lSikYTc0_ZpaFeunG-10" edge="1">
          <mxGeometry width="50" height="50" relative="1" as="geometry">
            <mxPoint x="486" y="308" as="sourcePoint" />
            <mxPoint x="536" y="258" as="targetPoint" />
          </mxGeometry>
        </mxCell>
        <mxCell id="gL0lSikYTc0_ZpaFeunG-87" value="" style="endArrow=none;html=1;rounded=0;exitX=0.5;exitY=0;exitDx=0;exitDy=0;entryX=0.5;entryY=1;entryDx=0;entryDy=0;" parent="1" source="gL0lSikYTc0_ZpaFeunG-1" target="gL0lSikYTc0_ZpaFeunG-12" edge="1">
          <mxGeometry width="50" height="50" relative="1" as="geometry">
            <mxPoint x="486" y="308" as="sourcePoint" />
            <mxPoint x="536" y="258" as="targetPoint" />
          </mxGeometry>
        </mxCell>
        <mxCell id="gL0lSikYTc0_ZpaFeunG-88" value="" style="endArrow=none;html=1;rounded=0;exitX=1;exitY=0;exitDx=0;exitDy=0;" parent="1" source="gL0lSikYTc0_ZpaFeunG-1" target="gL0lSikYTc0_ZpaFeunG-14" edge="1">
          <mxGeometry width="50" height="50" relative="1" as="geometry">
            <mxPoint x="486" y="308" as="sourcePoint" />
            <mxPoint x="536" y="258" as="targetPoint" />
          </mxGeometry>
        </mxCell>
        <mxCell id="gL0lSikYTc0_ZpaFeunG-89" value="" style="endArrow=none;html=1;rounded=0;exitX=0;exitY=0;exitDx=0;exitDy=0;entryX=0.5;entryY=1;entryDx=0;entryDy=0;" parent="1" target="SGavbVAg5E-sy-fef5p--7" edge="1">
          <mxGeometry width="50" height="50" relative="1" as="geometry">
            <mxPoint x="600" y="102" as="sourcePoint" />
            <mxPoint x="576" y="61.00000000000023" as="targetPoint" />
          </mxGeometry>
        </mxCell>
        <mxCell id="gL0lSikYTc0_ZpaFeunG-90" value="" style="endArrow=none;html=1;rounded=0;exitX=1;exitY=0;exitDx=0;exitDy=0;entryX=0.5;entryY=1;entryDx=0;entryDy=0;" parent="1" target="gL0lSikYTc0_ZpaFeunG-30" edge="1">
          <mxGeometry width="50" height="50" relative="1" as="geometry">
            <mxPoint x="720" y="102" as="sourcePoint" />
            <mxPoint x="536" y="114" as="targetPoint" />
          </mxGeometry>
        </mxCell>
        <mxCell id="gL0lSikYTc0_ZpaFeunG-91" value="" style="endArrow=none;html=1;rounded=0;exitX=0.5;exitY=0;exitDx=0;exitDy=0;entryX=0.5;entryY=1;entryDx=0;entryDy=0;" parent="1" source="gL0lSikYTc0_ZpaFeunG-4" target="gL0lSikYTc0_ZpaFeunG-77" edge="1">
          <mxGeometry width="50" height="50" relative="1" as="geometry">
            <mxPoint x="486" y="452" as="sourcePoint" />
            <mxPoint x="536" y="402" as="targetPoint" />
          </mxGeometry>
        </mxCell>
        <mxCell id="gL0lSikYTc0_ZpaFeunG-92" value="" style="endArrow=none;html=1;rounded=0;exitX=1;exitY=0;exitDx=0;exitDy=0;entryX=0;entryY=1;entryDx=0;entryDy=0;" parent="1" source="gL0lSikYTc0_ZpaFeunG-4" target="gL0lSikYTc0_ZpaFeunG-78" edge="1">
          <mxGeometry width="50" height="50" relative="1" as="geometry">
            <mxPoint x="486" y="452" as="sourcePoint" />
            <mxPoint x="536" y="402" as="targetPoint" />
          </mxGeometry>
        </mxCell>
        <mxCell id="gL0lSikYTc0_ZpaFeunG-93" value="" style="endArrow=none;html=1;rounded=0;exitX=1;exitY=0.5;exitDx=0;exitDy=0;entryX=0;entryY=1;entryDx=0;entryDy=0;" parent="1" source="gL0lSikYTc0_ZpaFeunG-4" target="gL0lSikYTc0_ZpaFeunG-79" edge="1">
          <mxGeometry width="50" height="50" relative="1" as="geometry">
            <mxPoint x="486" y="452" as="sourcePoint" />
            <mxPoint x="536" y="402" as="targetPoint" />
          </mxGeometry>
        </mxCell>
        <mxCell id="gL0lSikYTc0_ZpaFeunG-94" value="" style="endArrow=none;html=1;rounded=0;exitX=1;exitY=1;exitDx=0;exitDy=0;entryX=0;entryY=0.5;entryDx=0;entryDy=0;" parent="1" source="gL0lSikYTc0_ZpaFeunG-4" target="gL0lSikYTc0_ZpaFeunG-81" edge="1">
          <mxGeometry width="50" height="50" relative="1" as="geometry">
            <mxPoint x="486" y="452" as="sourcePoint" />
            <mxPoint x="536" y="402" as="targetPoint" />
          </mxGeometry>
        </mxCell>
        <mxCell id="gL0lSikYTc0_ZpaFeunG-96" value="1" style="text;html=1;strokeColor=none;fillColor=none;align=center;verticalAlign=middle;whiteSpace=wrap;rounded=0;" parent="1" vertex="1">
          <mxGeometry x="555" y="500" width="60" height="30" as="geometry" />
        </mxCell>
        <mxCell id="gL0lSikYTc0_ZpaFeunG-100" value="N" style="text;html=1;strokeColor=none;fillColor=none;align=center;verticalAlign=middle;whiteSpace=wrap;rounded=0;" parent="1" vertex="1">
          <mxGeometry x="546" y="174" width="60" height="30" as="geometry" />
        </mxCell>
        <mxCell id="gL0lSikYTc0_ZpaFeunG-101" value="M" style="text;html=1;strokeColor=none;fillColor=none;align=center;verticalAlign=middle;whiteSpace=wrap;rounded=0;" parent="1" vertex="1">
          <mxGeometry x="90" y="180" width="60" height="30" as="geometry" />
        </mxCell>
        <mxCell id="gL0lSikYTc0_ZpaFeunG-103" value="N" style="text;html=1;strokeColor=none;fillColor=none;align=center;verticalAlign=middle;whiteSpace=wrap;rounded=0;" parent="1" vertex="1">
          <mxGeometry x="90" y="470" width="60" height="30" as="geometry" />
        </mxCell>
        <mxCell id="gL0lSikYTc0_ZpaFeunG-105" value="M" style="text;html=1;strokeColor=none;fillColor=none;align=center;verticalAlign=middle;whiteSpace=wrap;rounded=0;" parent="1" vertex="1">
          <mxGeometry x="186" y="120" width="60" height="30" as="geometry" />
        </mxCell>
        <mxCell id="gL0lSikYTc0_ZpaFeunG-106" value="N" style="text;html=1;strokeColor=none;fillColor=none;align=center;verticalAlign=middle;whiteSpace=wrap;rounded=0;" parent="1" vertex="1">
          <mxGeometry x="546" y="114" width="60" height="30" as="geometry" />
        </mxCell>
        <mxCell id="KMxwU-C4y8gagwHS2Y9p-1" value="QUALIFICATION" style="rounded=0;whiteSpace=wrap;html=1;" parent="1" vertex="1">
          <mxGeometry x="600" y="105" width="120" height="90" as="geometry" />
        </mxCell>
        <mxCell id="KMxwU-C4y8gagwHS2Y9p-2" value="M" style="text;html=1;strokeColor=none;fillColor=none;align=center;verticalAlign=middle;whiteSpace=wrap;rounded=0;" parent="1" vertex="1">
          <mxGeometry x="156" y="470" width="60" height="30" as="geometry" />
        </mxCell>
        <mxCell id="SGavbVAg5E-sy-fef5p--3" value="M" style="text;html=1;strokeColor=none;fillColor=none;align=center;verticalAlign=middle;whiteSpace=wrap;rounded=0;" parent="1" vertex="1">
          <mxGeometry x="186" y="500" width="60" height="30" as="geometry" />
        </mxCell>
        <mxCell id="SGavbVAg5E-sy-fef5p--7" value="&lt;u&gt;QUAL_CODE&lt;/u&gt;" style="ellipse;whiteSpace=wrap;html=1;" parent="1" vertex="1">
          <mxGeometry x="516" y="20.5" width="90" height="42" as="geometry" />
        </mxCell>
        <mxCell id="SGavbVAg5E-sy-fef5p--8" value="&lt;u&gt;POS_ID&lt;/u&gt;" style="ellipse;whiteSpace=wrap;html=1;" parent="1" vertex="1">
          <mxGeometry x="-102" y="500" width="72" height="36" as="geometry" />
        </mxCell>
      </root>
    </mxGraphModel>
  </diagram>
</mxfile>
